<svg width="26" height="24" viewBox="0 0 26 24" fill="none" xmlns="http://www.w3.org/2000/svg">
<path d="M23.4 2.66667L23.4 21.3333L9.1 21.3333L9.1 2.66667M-7.57664e-07 6.66667L2.6 6.66667L2.6 17.3333L-2.91409e-07 17.3333L-1.74846e-07 20L2.6 20L2.6 21.3333C2.6 22.8133 3.757 24 5.2 24L23.4 24C24.0896 24 24.7509 23.719 25.2385 23.219C25.7261 22.7189 26 22.0406 26 21.3333L26 2.66667C26 1.95942 25.7261 1.28115 25.2385 0.781049C24.7509 0.280953 24.0896 8.5436e-07 23.4 8.84502e-07L5.2 1.68005e-06C4.51044 1.71019e-06 3.84912 0.280954 3.36152 0.78105C2.87393 1.28115 2.6 1.95942 2.6 2.66667L2.6 4L-8.74228e-07 4M14.3 5.33333L14.3 12L20.8 12L20.8 5.33333L14.3 5.33333Z" fill="white"/>
</svg>
