<svg width="18" height="21" viewBox="0 0 18 21" fill="none" xmlns="http://www.w3.org/2000/svg">
<path fill-rule="evenodd" clip-rule="evenodd" d="M2.91795 0.00625606L12.1251 0.00156399V3.60349L2.91795 3.60818C2.50209 3.60865 2.097 3.47547 1.76199 3.22812L0.269517 2.12237C0.22055 2.08601 0.180758 2.03863 0.153338 1.98403C0.125919 1.92943 0.111635 1.86914 0.111635 1.808C0.111635 1.74685 0.125919 1.68656 0.153338 1.63197C0.180758 1.57737 0.22055 1.52999 0.269517 1.49363L1.76354 0.386311C2.09751 0.139041 2.50142 0.00533675 2.91639 0.00469198L2.91795 0.00625606ZM15.9155 3.60036L14.0725 3.60192V0H15.9218C16.9095 0.0156401 17.6651 0.896179 17.6651 1.79861C17.6651 2.70261 16.9095 3.58472 15.9218 3.60036H15.9155ZM6.67561 7.21323C7.19751 7.4228 7.64151 7.65271 8.02631 7.88106V21C7.43235 20.5526 6.78298 20.1845 6.09451 19.9052C4.94945 19.4454 3.29808 19.0653 0.778951 19.0653C0.57236 19.0653 0.374231 18.9829 0.228149 18.8363C0.0820678 18.6896 0 18.4907 0 18.2833V7.04119C0 6.83378 0.0820678 6.63488 0.228149 6.48822C0.374231 6.34157 0.57236 6.25918 0.778951 6.25918C3.45854 6.25918 5.31245 6.66426 6.67561 7.21323ZM11.9039 19.9052C11.0627 20.2446 10.4722 20.634 9.97213 20.9984V7.88106C10.3569 7.65271 10.8025 7.4228 11.3244 7.21323C12.6876 6.66426 14.5415 6.25918 17.221 6.25918C17.4276 6.25918 17.6258 6.34157 17.7718 6.48822C17.9179 6.63488 18 6.83378 18 7.04119V18.2833C18 18.4907 17.9179 18.6896 17.7718 18.8363C17.6258 18.9829 17.4276 19.0653 17.221 19.0653C14.7019 19.0653 13.0505 19.4438 11.9039 19.9052Z" fill="#8142FF"/>
</svg>
