<svg width="34" height="34" viewBox="0 0 34 34" fill="none" xmlns="http://www.w3.org/2000/svg">
<path d="M17.0009 2.83331C20.7536 2.83331 24.3661 4.32081 27.0153 6.98415C29.6786 9.6489 31.1676 13.2458 31.1676 17.0141C31.1676 21.9725 28.5595 26.5766 24.3095 29.1408C20.0595 31.705 14.7753 31.8466 10.3851 29.5091H10.3411C9.91756 29.3391 9.57615 29.0416 9.17948 28.8433C8.74173 28.6591 8.24448 28.6308 7.79256 28.7739C6.74281 29.1408 5.68031 29.4383 4.58948 29.6933C4.02281 29.7075 3.85281 29.3675 3.85281 28.815C4.10781 27.6958 4.44781 26.5894 4.8459 25.5141C5.00031 25.0466 4.95923 24.5508 4.7184 24.1102L4.43506 23.5591C3.38531 21.5616 2.83423 19.3375 2.83423 17.0864V17C2.83423 13.2458 4.32031 9.63331 6.98365 6.98415C9.64698 4.32081 13.2453 2.83331 17.0009 2.83331ZM23.5303 15.2008C22.5386 15.2008 21.7184 16.0083 21.7184 17.0141C21.7184 18.0058 22.5386 18.8275 23.5303 18.8275C24.5361 18.8275 25.3436 18.0058 25.3436 17.0141C25.3436 16.0083 24.5361 15.2008 23.5303 15.2008ZM17.0009 15.2008C15.9951 15.2008 15.1861 16.0083 15.1861 17.0141C15.1861 18.0058 15.9951 18.8275 17.0009 18.8275C18.0067 18.8275 18.8128 18.0058 18.8128 17.0141C18.8128 16.0083 18.0067 15.2008 17.0009 15.2008ZM10.4686 15.2008C9.46281 15.2008 8.65531 16.0083 8.65531 17.0141C8.65531 18.0058 9.46281 18.8275 10.4686 18.8275C11.4603 18.8275 12.2834 18.0058 12.2834 17.0141C12.2834 16.0083 11.4603 15.2008 10.4686 15.2008Z" fill="white"/>
</svg>
