<svg width="15" height="15" viewBox="0 0 15 15" fill="none" xmlns="http://www.w3.org/2000/svg">
<path d="M0.769165 7.82052C0.769165 11.3609 3.63904 14.2308 7.17942 14.2308C10.7198 14.2308 13.5897 11.3609 13.5897 7.82052C13.5897 4.28013 10.7198 1.41026 7.17942 1.41026C3.63904 1.41026 0.769165 4.28013 0.769165 7.82052Z" stroke="#052976" stroke-width="1.5" stroke-linecap="round" stroke-linejoin="round"/>
<path d="M7.82017 1.44233C7.82017 1.44233 9.74324 3.97438 9.74324 7.82053C9.74324 11.6667 7.82017 14.1987 7.82017 14.1987M6.53811 14.1987C6.53811 14.1987 4.61504 11.6667 4.61504 7.82053C4.61504 3.97438 6.53811 1.44233 6.53811 1.44233M1.17273 10.0641H13.1856M1.17273 5.57694H13.1856" stroke="#052976" stroke-width="1.5" stroke-linecap="round" stroke-linejoin="round"/>
</svg>
