<svg width="26" height="26" viewBox="0 0 26 26" fill="none" xmlns="http://www.w3.org/2000/svg">
<path d="M8.5949 25.3158C6.20762 25.3158 5.01524 25.3158 4.27349 24.574C3.53174 23.8323 3.53174 22.6399 3.53174 20.2526L3.53174 5.06316C3.53174 2.67588 3.53174 1.48351 4.27349 0.741756C5.01524 3.75351e-06 6.20762 3.70432e-06 8.5949 3.60585e-06C9.19108 3.58126e-06 9.48981 3.56894e-06 9.67588 0.184808C9.86069 0.37088 9.86069 0.670871 9.86069 1.26579L9.86069 24.05C9.86069 24.6462 9.86069 24.9449 9.67588 25.131C9.48981 25.3158 9.18982 25.3158 8.5949 25.3158Z" fill="white"/>
<path fill-rule="evenodd" clip-rule="evenodd" d="M24.3087 24.574C23.567 25.3158 22.3746 25.3158 19.9873 25.3158L13.6584 25.3158C13.0622 25.3158 12.7635 25.3158 12.5774 25.131C12.3926 24.9449 12.3926 24.6449 12.3926 24.05L12.3926 1.26579C12.3926 0.669605 12.3926 0.37088 12.5774 0.184809C12.7635 3.7994e-06 13.0622 3.78708e-06 13.6584 3.76249e-06L19.9873 3.50143e-06C22.3746 3.40296e-06 23.567 3.35377e-06 24.3087 0.741756C25.0505 1.48351 25.0505 2.67588 25.0505 5.06316L25.0505 20.2526C25.0505 22.6399 25.0505 23.8323 24.3087 24.574ZM17.4557 17.7211C17.4557 18.0568 17.5891 18.3787 17.8265 18.6161C18.0639 18.8535 18.3858 18.9868 18.7215 18.9868C19.0572 18.9868 19.3792 18.8535 19.6166 18.6161C19.854 18.3787 19.9873 18.0568 19.9873 17.7211L19.9873 7.59474C19.9873 7.25903 19.854 6.93707 19.6166 6.69969C19.3792 6.46231 19.0572 6.32895 18.7215 6.32895C18.3858 6.32895 18.0639 6.46231 17.8265 6.69969C17.5891 6.93707 17.4557 7.25903 17.4557 7.59474L17.4557 17.7211Z" fill="white"/>
<path d="M1 18.9868L4.79737 18.9868M0.999999 6.32895L4.79737 6.32895" stroke="white" stroke-width="2" stroke-linecap="round"/>
</svg>
