<svg width="25" height="24" viewBox="0 0 25 24" fill="none" xmlns="http://www.w3.org/2000/svg">
<path d="M15.1337 22.612H10.7005C6.52102 22.612 4.43075 22.612 3.13292 21.3131C1.83509 20.0141 1.83398 17.925 1.83398 13.7455V11.5289C1.83398 7.3495 1.83398 5.25923 3.13292 3.9614C4.43186 2.66357 6.52102 2.66246 10.7005 2.66246H15.1337C19.3131 2.66246 21.4034 2.66246 22.7012 3.9614C23.999 5.26034 24.0002 7.3495 24.0002 11.5289V13.7455C24.0002 17.925 24.0001 20.0152 22.7012 21.3131C21.9775 22.0379 21.0077 22.3582 19.5669 22.499M7.37553 2.66246V1M18.4586 2.66246V1M23.446 8.204H11.5317M1.83398 8.204H6.12868" stroke="#333333" stroke-width="2" stroke-linecap="round"/>
<path d="M18.8165 17.0704C18.8165 17.1654 18.7788 17.2565 18.7116 17.3237C18.6444 17.3909 18.5533 17.4287 18.4582 17.4287C18.3632 17.4287 18.2721 17.3909 18.2049 17.3237C18.1377 17.2565 18.0999 17.1654 18.0999 17.0704C18.0999 16.9753 18.1377 16.8842 18.2049 16.817C18.2721 16.7498 18.3632 16.712 18.4582 16.712C18.5533 16.712 18.6444 16.7498 18.7116 16.817C18.7788 16.8842 18.8165 16.9753 18.8165 17.0704ZM18.8165 12.6371C18.8165 12.7321 18.7788 12.8233 18.7116 12.8905C18.6444 12.9577 18.5533 12.9954 18.4582 12.9954C18.3632 12.9954 18.2721 12.9577 18.2049 12.8905C18.1377 12.8233 18.0999 12.7321 18.0999 12.6371C18.0999 12.5421 18.1377 12.451 18.2049 12.3838C18.2721 12.3166 18.3632 12.2788 18.4582 12.2788C18.5533 12.2788 18.6444 12.3166 18.7116 12.3838C18.7788 12.451 18.8165 12.5421 18.8165 12.6371ZM13.275 17.0704C13.275 17.1654 13.2373 17.2565 13.1701 17.3237C13.1029 17.3909 13.0117 17.4287 12.9167 17.4287C12.8217 17.4287 12.7305 17.3909 12.6633 17.3237C12.5961 17.2565 12.5584 17.1654 12.5584 17.0704C12.5584 16.9753 12.5961 16.8842 12.6633 16.817C12.7305 16.7498 12.8217 16.712 12.9167 16.712C13.0117 16.712 13.1029 16.7498 13.1701 16.817C13.2373 16.8842 13.275 16.9753 13.275 17.0704ZM13.275 12.6371C13.275 12.7321 13.2373 12.8233 13.1701 12.8905C13.1029 12.9577 13.0117 12.9954 12.9167 12.9954C12.8217 12.9954 12.7305 12.9577 12.6633 12.8905C12.5961 12.8233 12.5584 12.7321 12.5584 12.6371C12.5584 12.5421 12.5961 12.451 12.6633 12.3838C12.7305 12.3166 12.8217 12.2788 12.9167 12.2788C13.0117 12.2788 13.1029 12.3166 13.1701 12.3838C13.2373 12.451 13.275 12.5421 13.275 12.6371ZM7.73346 17.0704C7.73346 17.1654 7.69571 17.2565 7.62852 17.3237C7.56132 17.3909 7.47018 17.4287 7.37515 17.4287C7.28012 17.4287 7.18899 17.3909 7.12179 17.3237C7.0546 17.2565 7.01685 17.1654 7.01685 17.0704C7.01685 16.9753 7.0546 16.8842 7.12179 16.817C7.18899 16.7498 7.28012 16.712 7.37515 16.712C7.47018 16.712 7.56132 16.7498 7.62852 16.817C7.69571 16.8842 7.73346 16.9753 7.73346 17.0704ZM7.73346 12.6371C7.73346 12.7321 7.69571 12.8233 7.62852 12.8905C7.56132 12.9577 7.47018 12.9954 7.37515 12.9954C7.28013 12.9954 7.18899 12.9577 7.12179 12.8905C7.0546 12.8233 7.01685 12.7321 7.01685 12.6371C7.01685 12.5421 7.0546 12.451 7.12179 12.3838C7.18899 12.3166 7.28013 12.2788 7.37515 12.2788C7.47018 12.2788 7.56132 12.3166 7.62852 12.3838C7.69571 12.451 7.73346 12.5421 7.73346 12.6371Z" fill="#333333" stroke="#333333" stroke-width="1.5"/>
</svg>
