<svg width="68" height="51" viewBox="0 0 68 51" fill="none" xmlns="http://www.w3.org/2000/svg">
<path d="M67.5867 27.5354V35.6101C67.5867 36.4956 67.0204 37.2836 66.1799 37.5633L64.7423 38.0433L50.3206 20.0715L66.2029 25.5873C67.0306 25.8747 67.5841 26.655 67.5841 27.5328L67.5867 27.5354Z" fill="#4CC4FF"/>
<path d="M50.3232 20.0715L64.7449 38.0433L39.9451 46.3285V16.4679L50.3232 20.0715Z" fill="#2633FF"/>
<path d="M39.9451 7.14062L50.3232 20.0715L39.9451 16.4679V7.14062Z" fill="#8142FF"/>
<path d="M39.945 16.4679V46.3285L29.8538 43.6848L24.2881 35.818V11.0291L39.945 16.4679Z" fill="#052976"/>
<path d="M39.945 7.14062V16.4679L24.2881 11.0291L39.945 7.14062Z" fill="#103576"/>
<path d="M39.945 7.14064L24.2881 11.0291L9.37182 14.7354L1.12825 3.0853C0.259558 1.85843 1.13594 0.159302 2.63756 0.159302H32.8648C33.8001 0.159302 34.6842 0.582801 35.2684 1.31173L39.945 7.14064Z" fill="#8142FF"/>
<path d="M39.9449 46.3285L33.2978 48.5487L29.8538 43.6848L39.9449 46.3285Z" fill="#2633FF"/>
<path d="M29.854 43.6848L33.2954 48.5487L26.7226 50.7432C25.5233 51.1436 24.2856 50.2504 24.2856 48.985V42.227L29.8514 43.6848H29.854Z" fill="#4CC4FF"/>
<path d="M24.2881 35.818L29.8538 43.6848L24.2881 42.227V35.818Z" fill="#0A9D76"/>
<path d="M24.2881 35.818V42.227L10.9068 38.7209C10.0022 38.4848 9.37183 37.666 9.37183 36.7292V14.7328L24.2881 35.8154V35.818Z" fill="#20CC76"/>
<path d="M24.2881 11.0291V35.818L9.37183 14.7328L24.2881 11.0291Z" fill="#103576"/>
<path d="M35.6732 30.5127C35.7245 30.5204 35.7758 30.5255 35.827 30.5281L34.9891 31.4367L34.9455 31.4855C34.8635 31.4701 34.7789 31.4521 34.6969 31.4341C34.6585 31.4264 34.6175 31.4187 34.5791 31.4085C34.5278 31.3956 34.4791 31.3854 34.4279 31.3725C34.3971 31.3648 34.3664 31.3571 34.3356 31.3494C34.3126 31.3443 34.2895 31.3366 34.269 31.3315C34.2254 31.3186 34.1819 31.3084 34.1383 31.2955C34.0742 31.2776 34.0102 31.257 33.9461 31.2365C33.9051 31.2237 33.8641 31.2108 33.8231 31.198C33.6617 31.1441 33.5028 31.0851 33.3439 31.0209C33.3081 31.0055 33.2696 30.9901 33.2338 30.9747C33.2184 30.967 33.2004 30.9619 33.1851 30.9542C33.1466 30.9388 33.1082 30.9208 33.0698 30.9028C33.0288 30.8849 32.9878 30.8669 32.9468 30.8464C32.9134 30.831 32.8827 30.8156 32.8494 30.8002C32.8161 30.7848 32.7853 30.7694 32.752 30.754C32.7033 30.7283 32.6521 30.7026 32.6059 30.677C32.5573 30.6513 32.5086 30.6231 32.4599 30.5974C32.6213 30.4947 32.7776 30.3869 32.9288 30.274C33.0441 30.1893 33.1671 30.102 33.2953 30.0173C33.3516 29.9788 33.408 29.9403 33.4669 29.9044C33.5131 29.9249 33.5592 29.9455 33.6079 29.966C33.6924 30.0019 33.7796 30.0379 33.8667 30.0712C33.9282 30.0943 33.9897 30.1174 34.0512 30.138C34.0871 30.1508 34.1255 30.1636 34.1614 30.1765C34.1998 30.1893 34.2408 30.2021 34.2792 30.215C34.3254 30.2304 34.3741 30.2458 34.4227 30.2586C34.474 30.274 34.5253 30.2894 34.5765 30.3022C34.7456 30.3484 34.9173 30.3869 35.089 30.4229C35.1198 30.4306 35.1505 30.4357 35.1813 30.4408C35.2274 30.4511 35.2709 30.4562 35.3171 30.4639C35.3683 30.4716 35.417 30.4793 35.4682 30.487C35.5041 30.4922 35.5426 30.4973 35.5784 30.5024C35.6092 30.5076 35.6399 30.5101 35.6732 30.5153V30.5127ZM32.6521 28.7391V23.0309C33.4439 23.8548 34.0794 24.8481 34.1819 25.962C34.5381 25.7182 34.8507 25.4102 35.0992 25.0585C34.8327 24.0832 34.2716 23.2157 33.5976 22.4739C34.5534 22.7639 35.3017 23.267 35.7143 23.5904C35.7527 23.3774 35.7732 23.1592 35.7732 22.9359C35.7732 22.7126 35.7527 22.4919 35.7143 22.2788C35.1787 21.94 34.4689 21.5807 33.6309 21.3677C34.1793 21.0109 34.6559 20.7542 34.9404 20.6079C34.6969 20.3102 34.4074 20.0535 34.0819 19.8456C33.7001 20.0535 33.1927 20.3513 32.6495 20.7311V19.4401V19.3092C32.4752 19.2835 32.2959 19.2707 32.1139 19.2707C31.932 19.2707 31.7526 19.2835 31.5784 19.3092V20.7311C31.0326 20.3513 30.5278 20.0535 30.1434 19.8456C29.8179 20.0535 29.5284 20.3102 29.2849 20.6079C29.5694 20.7542 30.046 21.0109 30.5944 21.3677C29.7564 21.5807 29.0466 21.94 28.5111 22.2788C28.4726 22.4919 28.4521 22.71 28.4521 22.9359C28.4521 23.1618 28.4726 23.3774 28.5085 23.5904C28.9211 23.267 29.6693 22.7614 30.6302 22.4713C29.9563 23.2131 29.3926 24.0806 29.1261 25.0585C29.3772 25.4102 29.6873 25.7182 30.0434 25.962C30.1459 24.8481 30.7814 23.8548 31.5732 23.0309V28.734V28.7391C30.4611 28.0179 28.9313 27.2941 27.1094 27.1427L27.5604 27.8151L27.9114 28.3387C29.2029 28.6031 30.2997 29.1703 31.1248 29.7247C30.2792 30.1662 29.3593 30.4383 28.3983 30.5281L29.2362 31.4367L29.2798 31.4855C30.2817 31.2981 31.2376 30.9311 32.1088 30.3972C32.3164 30.2714 32.5162 30.1354 32.7136 29.9917C32.8314 29.9044 32.9596 29.8146 33.0928 29.7273C33.9154 29.1729 35.0121 28.6057 36.3036 28.3413L36.6547 27.8177L37.1057 27.1452C35.2838 27.2967 33.7539 28.0205 32.6418 28.7417L32.6521 28.7391Z" fill="url(#paint0_linear_1549_104)"/>
<defs>
<linearGradient id="paint0_linear_1549_104" x1="32.1165" y1="36.8575" x2="32.1165" y2="19.05" gradientUnits="userSpaceOnUse">
<stop offset="0.13" stop-color="#BC9470"/>
<stop offset="0.15" stop-color="#BE9773"/>
<stop offset="0.34" stop-color="#D5B9A1"/>
<stop offset="0.53" stop-color="#E7D5C4"/>
<stop offset="0.71" stop-color="#F4E8DE"/>
<stop offset="0.87" stop-color="#FCF4ED"/>
<stop offset="1" stop-color="#FFF9F3"/>
</linearGradient>
</defs>
</svg>
