<svg width="34" height="38" viewBox="0 0 34 38" fill="none" xmlns="http://www.w3.org/2000/svg">
<g clip-path="url(#clip0_1058_1648)">
<path fill-rule="evenodd" clip-rule="evenodd" d="M33.0556 7.55556C28.1256 8.87778 22.3456 9.44444 17 9.44444C11.6544 9.44444 5.87444 8.87778 0.944444 7.55556L0 11.3333C3.51333 12.2778 7.55556 12.9011 11.3333 13.2222V37.7778H15.1111V26.4444H18.8889V37.7778H22.6667V13.2222C26.4444 12.9011 30.4867 12.2778 34 11.3333L33.0556 7.55556ZM17 7.55556C19.0778 7.55556 20.7778 5.85556 20.7778 3.77778C20.7778 1.7 19.0778 0 17 0C14.9222 0 13.2222 1.7 13.2222 3.77778C13.2222 5.85556 14.9222 7.55556 17 7.55556Z" fill="white"/>
</g>
<defs>
<clipPath id="clip0_1058_1648">
<rect width="34" height="37.7778" fill="white"/>
</clipPath>
</defs>
</svg>
