<svg width="38" height="32" viewBox="0 0 38 32" fill="none" xmlns="http://www.w3.org/2000/svg">
<path d="M37.0339 29.9574H34.1356V10.2128H34.4576C34.7139 10.2128 34.9596 10.1052 35.1408 9.91364C35.3219 9.72211 35.4237 9.46235 35.4237 9.19149C35.4237 8.92063 35.3219 8.66086 35.1408 8.46934C34.9596 8.27781 34.7139 8.17021 34.4576 8.17021H26.4068V2.04255H26.7288C26.985 2.04255 27.2308 1.93495 27.412 1.74343C27.5931 1.5519 27.6949 1.29214 27.6949 1.02128C27.6949 0.750417 27.5931 0.490651 27.412 0.299125C27.2308 0.107598 26.985 0 26.7288 0H3.54237C3.28615 0 3.04042 0.107598 2.85924 0.299125C2.67806 0.490651 2.57627 0.750417 2.57627 1.02128C2.57627 1.29214 2.67806 1.5519 2.85924 1.74343C3.04042 1.93495 3.28615 2.04255 3.54237 2.04255H3.86441V29.9574H0.966102C0.709876 29.9574 0.464144 30.065 0.282965 30.2566C0.101785 30.4481 0 30.7079 0 30.9787C0 31.2496 0.101785 31.5093 0.282965 31.7009C0.464144 31.8924 0.709876 32 0.966102 32H37.0339C37.2901 32 37.5359 31.8924 37.717 31.7009C37.8982 31.5093 38 31.2496 38 30.9787C38 30.7079 37.8982 30.4481 37.717 30.2566C37.5359 30.065 37.2901 29.9574 37.0339 29.9574ZM32.2034 10.2128V29.9574H26.4068V10.2128H32.2034ZM5.79661 2.04255H24.4746V29.9574H19.9661V21.4468C19.9661 21.1759 19.8643 20.9162 19.6831 20.7247C19.502 20.5331 19.2562 20.4255 19 20.4255H11.2712C11.015 20.4255 10.7692 20.5331 10.588 20.7247C10.4069 20.9162 10.3051 21.1759 10.3051 21.4468V29.9574H5.79661V2.04255ZM18.0339 29.9574H12.2373V22.4681H18.0339V29.9574ZM9.01695 7.82979C9.01695 7.55893 9.11874 7.29916 9.29991 7.10764C9.48109 6.91611 9.72682 6.80851 9.98305 6.80851H12.5593C12.8155 6.80851 13.0613 6.91611 13.2425 7.10764C13.4236 7.29916 13.5254 7.55893 13.5254 7.82979C13.5254 8.10065 13.4236 8.36041 13.2425 8.55194C13.0613 8.74346 12.8155 8.85106 12.5593 8.85106H9.98305C9.72682 8.85106 9.48109 8.74346 9.29991 8.55194C9.11874 8.36041 9.01695 8.10065 9.01695 7.82979ZM16.7458 7.82979C16.7458 7.55893 16.8475 7.29916 17.0287 7.10764C17.2099 6.91611 17.4556 6.80851 17.7119 6.80851H20.2881C20.5444 6.80851 20.7901 6.91611 20.9713 7.10764C21.1525 7.29916 21.2542 7.55893 21.2542 7.82979C21.2542 8.10065 21.1525 8.36041 20.9713 8.55194C20.7901 8.74346 20.5444 8.85106 20.2881 8.85106H17.7119C17.4556 8.85106 17.2099 8.74346 17.0287 8.55194C16.8475 8.36041 16.7458 8.10065 16.7458 7.82979ZM9.98305 15.6596C9.72682 15.6596 9.48109 15.552 9.29991 15.3604C9.11874 15.1689 9.01695 14.9092 9.01695 14.6383C9.01695 14.3674 9.11874 14.1077 9.29991 13.9161C9.48109 13.7246 9.72682 13.617 9.98305 13.617H12.5593C12.8155 13.617 13.0613 13.7246 13.2425 13.9161C13.4236 14.1077 13.5254 14.3674 13.5254 14.6383C13.5254 14.9092 13.4236 15.1689 13.2425 15.3604C13.0613 15.552 12.8155 15.6596 12.5593 15.6596H9.98305ZM16.7458 14.6383C16.7458 14.3674 16.8475 14.1077 17.0287 13.9161C17.2099 13.7246 17.4556 13.617 17.7119 13.617H20.2881C20.5444 13.617 20.7901 13.7246 20.9713 13.9161C21.1525 14.1077 21.2542 14.3674 21.2542 14.6383C21.2542 14.9092 21.1525 15.1689 20.9713 15.3604C20.7901 15.552 20.5444 15.6596 20.2881 15.6596H17.7119C17.4556 15.6596 17.2099 15.552 17.0287 15.3604C16.8475 15.1689 16.7458 14.9092 16.7458 14.6383Z" fill="white"/>
</svg>
