<svg width="36" height="37" viewBox="0 0 36 37" fill="none" xmlns="http://www.w3.org/2000/svg">
<path d="M14.8774 16.1962C13.2757 16.1962 11.71 15.7212 10.3783 14.8314C9.04659 13.9416 8.00864 12.6768 7.39571 11.1971C6.78279 9.71735 6.62242 8.08909 6.93489 6.51822C7.24735 4.94735 8.01862 3.50441 9.15115 2.37187C10.2837 1.23934 11.7266 0.468072 13.2975 0.155606C14.8684 -0.15686 16.4966 0.00350876 17.9764 0.616433C19.4561 1.22936 20.7208 2.26731 21.6107 3.59903C22.5005 4.93075 22.9754 6.49643 22.9754 8.09808C22.9754 10.2458 22.1222 12.3056 20.6036 13.8243C19.0849 15.343 17.0251 16.1962 14.8774 16.1962ZM14.8774 2.40629C13.7333 2.40629 12.615 2.74553 11.6638 3.38113C10.7125 4.01672 9.97113 4.92011 9.53333 5.97706C9.09552 7.03401 8.98097 8.19704 9.20416 9.3191C9.42735 10.4411 9.97826 11.4718 10.7872 12.2808C11.5962 13.0897 12.6268 13.6406 13.7489 13.8638C14.8709 14.087 16.034 13.9725 17.0909 13.5347C18.1479 13.0969 19.0513 12.3555 19.6869 11.4042C20.3224 10.453 20.6617 9.33466 20.6617 8.19063C20.6617 7.43102 20.5121 6.67884 20.2214 5.97706C19.9307 5.27527 19.5046 4.63761 18.9675 4.10048C18.4304 3.56336 17.7927 3.13729 17.0909 2.8466C16.3891 2.55591 15.637 2.40629 14.8774 2.40629ZM21.3211 17.596C15.0607 16.1864 8.51092 16.8649 2.6724 19.5279C1.86942 19.9115 1.19192 20.5153 0.7188 21.269C0.245684 22.0227 -0.0035782 22.8953 3.88121e-05 23.7852V30.6686C3.88089e-05 30.8205 0.0299622 30.9709 0.0881003 31.1113C0.146238 31.2516 0.231452 31.3792 0.338877 31.4866C0.446303 31.594 0.573835 31.6792 0.714192 31.7374C0.85455 31.7955 1.00498 31.8254 1.15691 31.8254C1.30883 31.8254 1.45926 31.7955 1.59962 31.7374C1.73998 31.6792 1.86751 31.594 1.97494 31.4866C2.08236 31.3792 2.16757 31.2516 2.22571 31.1113C2.28385 30.9709 2.31377 30.8205 2.31377 30.6686V23.7852C2.3037 23.3348 2.42532 22.8913 2.6637 22.5091C2.90209 22.1269 3.24687 21.8225 3.65574 21.6334C7.17281 20.0091 11.0033 19.1758 14.8774 19.1924C17.048 19.1899 19.2112 19.4462 21.3211 19.956V17.596ZM21.4831 28.5978H28.5862V30.2174H21.4831V28.5978Z" fill="white"/>
<path d="M34.2433 21.7261H28.2623V24.0399H33.0864V33.7228H16.6936V24.0399H23.9819V24.5257C23.9819 24.8326 24.1038 25.1268 24.3207 25.3438C24.5377 25.5607 24.8319 25.6826 25.1388 25.6826C25.4456 25.6826 25.7398 25.5607 25.9568 25.3438C26.1737 25.1268 26.2956 24.8326 26.2956 24.5257V20.0255C26.2956 19.7187 26.1737 19.4244 25.9568 19.2075C25.7398 18.9905 25.4456 18.8687 25.1388 18.8687C24.8319 18.8687 24.5377 18.9905 24.3207 19.2075C24.1038 19.4244 23.9819 19.7187 23.9819 20.0255V21.7261H15.5368C15.2299 21.7261 14.9357 21.848 14.7187 22.065C14.5018 22.2819 14.3799 22.5762 14.3799 22.883V34.8797C14.3799 35.1865 14.5018 35.4808 14.7187 35.6977C14.9357 35.9147 15.2299 36.0366 15.5368 36.0366H34.2433C34.5501 36.0366 34.8444 35.9147 35.0613 35.6977C35.2783 35.4808 35.4002 35.1865 35.4002 34.8797V22.883C35.4002 22.5762 35.2783 22.2819 35.0613 22.065C34.8444 21.848 34.5501 21.7261 34.2433 21.7261Z" fill="white"/>
</svg>
