<svg width="37" height="32" viewBox="0 0 37 32" fill="none" xmlns="http://www.w3.org/2000/svg">
<path d="M33.9 1H3.1C2.54305 1 2.0089 1.22576 1.61508 1.62763C1.22125 2.02949 1 2.57454 1 3.14286V28.8571C1 29.4255 1.22125 29.9705 1.61508 30.3724C2.0089 30.7742 2.54305 31 3.1 31H5.44325C5.57568 30.9998 5.70533 30.9613 5.81715 30.8889C5.92898 30.8165 6.01839 30.7132 6.075 30.5911C6.81232 29.0017 7.97674 27.6586 9.43281 26.7181C10.8889 25.7776 12.5767 25.2783 14.3 25.2783C16.0233 25.2783 17.7111 25.7776 19.1672 26.7181C20.6233 27.6586 21.7877 29.0017 22.525 30.5911C22.5816 30.7132 22.671 30.8165 22.7828 30.8889C22.8947 30.9613 23.0243 30.9998 23.1567 31H33.9C34.457 31 34.9911 30.7742 35.3849 30.3724C35.7787 29.9705 36 29.4255 36 28.8571V3.14286C36 2.57454 35.7787 2.02949 35.3849 1.62763C34.9911 1.22576 34.457 1 33.9 1ZM34.6 28.8571C34.6 29.0466 34.5262 29.2283 34.395 29.3622C34.2637 29.4962 34.0857 29.5714 33.9 29.5714H23.589C22.302 27.1037 20.126 25.2425 17.52 24.3804C18.706 23.6607 19.6277 22.5636 20.1435 21.2575C20.6592 19.9515 20.7404 18.5088 20.3747 17.1511C20.009 15.7934 19.2165 14.5958 18.1191 13.7422C17.0216 12.8886 15.6799 12.4263 14.3 12.4263C12.9201 12.4263 11.5784 12.8886 10.4809 13.7422C9.38347 14.5958 8.59101 15.7934 8.22529 17.1511C7.85957 18.5088 7.94082 19.9515 8.45654 21.2575C8.97227 22.5636 9.89395 23.6607 11.08 24.3804C8.47402 25.2425 6.29804 27.1037 5.011 29.5714H3.1C2.91435 29.5714 2.7363 29.4962 2.60503 29.3622C2.47375 29.2283 2.4 29.0466 2.4 28.8571V3.14286C2.4 2.95342 2.47375 2.77174 2.60503 2.63778C2.7363 2.50383 2.91435 2.42857 3.1 2.42857H33.9C34.0857 2.42857 34.2637 2.50383 34.395 2.63778C34.5262 2.77174 34.6 2.95342 34.6 3.14286V28.8571ZM14.3 23.8571C13.3309 23.8571 12.3835 23.5639 11.5777 23.0145C10.7719 22.4651 10.1439 21.6842 9.77299 20.7706C9.40212 19.8569 9.30508 18.8516 9.49415 17.8817C9.68322 16.9118 10.1499 16.0209 10.8352 15.3216C11.5205 14.6223 12.3935 14.1461 13.3441 13.9532C14.2946 13.7603 15.2798 13.8593 16.1751 14.2377C17.0705 14.6162 17.8358 15.257 18.3742 16.0793C18.9126 16.9015 19.2 17.8682 19.2 18.8571C19.2 19.5138 19.0733 20.1639 18.827 20.7706C18.5808 21.3772 18.2198 21.9284 17.7648 22.3927C17.3098 22.857 16.7696 23.2253 16.1751 23.4765C15.5807 23.7278 14.9435 23.8571 14.3 23.8571ZM30.4 7.42857V24.5714C30.4 24.7609 30.3263 24.9426 30.195 25.0765C30.0637 25.2105 29.8857 25.2857 29.7 25.2857H26.9C26.7143 25.2857 26.5363 25.2105 26.405 25.0765C26.2737 24.9426 26.2 24.7609 26.2 24.5714C26.2 24.382 26.2737 24.2003 26.405 24.0664C26.5363 23.9324 26.7143 23.8571 26.9 23.8571H29V8.14286H8V10.2857C8 10.4752 7.92625 10.6568 7.79498 10.7908C7.6637 10.9247 7.48565 11 7.3 11C7.11435 11 6.9363 10.9247 6.80503 10.7908C6.67375 10.6568 6.6 10.4752 6.6 10.2857V7.42857C6.6 7.23913 6.67375 7.05745 6.80503 6.92349C6.9363 6.78954 7.11435 6.71429 7.3 6.71429H29.7C29.8857 6.71429 30.0637 6.78954 30.195 6.92349C30.3263 7.05745 30.4 7.23913 30.4 7.42857Z" fill="white" stroke="white"/>
</svg>
