<svg width="42" height="41" viewBox="0 0 42 41" fill="none" xmlns="http://www.w3.org/2000/svg">
<path d="M24.8 39.05H17.2C10.0351 39.05 6.4517 39.05 4.2268 36.8232C2.0019 34.5964 2 31.0149 2 23.85V20.05C2 12.8851 2 9.3017 4.2268 7.0768C6.4536 4.8519 10.0351 4.85 17.2 4.85H24.8C31.9649 4.85 35.5483 4.85 37.7732 7.0768C39.9981 9.3036 40 12.8851 40 20.05V23.85C40 31.0149 40 34.5983 37.7732 36.8232C36.5325 38.0658 34.87 38.6149 32.4 38.8562M11.5 4.85V2M30.5 4.85V2M39.05 14.35H18.625M2 14.35H9.3625" stroke="white" stroke-width="2.5" stroke-linecap="round"/>
<path d="M12.49 20.9601L12.8436 20.6065L12.49 20.9601C12.7526 21.2227 12.9001 21.5787 12.9001 21.95C12.9001 22.3214 12.7526 22.6774 12.49 22.94C12.2275 23.2025 11.8714 23.35 11.5001 23.35C11.1288 23.35 10.7727 23.2025 10.5101 22.94L10.1566 23.2936L10.5101 22.94C10.2476 22.6774 10.1001 22.3214 10.1001 21.95C10.1001 21.5787 10.2476 21.2227 10.5101 20.9601C10.7727 20.6975 11.1288 20.55 11.5001 20.55C11.8714 20.55 12.2275 20.6975 12.49 20.9601ZM20.0101 20.9601L19.6604 20.6103L20.0101 20.9601C20.2727 20.6975 20.6288 20.55 21.0001 20.55C21.3714 20.55 21.7275 20.6975 21.99 20.9601C22.2526 21.2227 22.4001 21.5787 22.4001 21.95C22.4001 22.3214 22.2526 22.6774 21.99 22.94C21.7275 23.2025 21.3714 23.35 21.0001 23.35C20.6288 23.35 20.2727 23.2025 20.0101 22.94L19.6566 23.2936L20.0101 22.94C19.7476 22.6774 19.6001 22.3214 19.6001 21.95C19.6001 21.5787 19.7476 21.2227 20.0101 20.9601ZM31.9001 29.55C31.9001 29.9214 31.7526 30.2774 31.49 30.54C31.2275 30.8025 30.8714 30.95 30.5001 30.95C30.1288 30.95 29.7727 30.8025 29.5101 30.54C29.2476 30.2774 29.1001 29.9214 29.1001 29.55C29.1001 29.1787 29.2476 28.8226 29.5101 28.5601C29.7727 28.2975 30.1288 28.15 30.5001 28.15C30.8714 28.15 31.2275 28.2975 31.49 28.5601C31.7526 28.8226 31.9001 29.1787 31.9001 29.55ZM31.9001 21.95C31.9001 22.3214 31.7526 22.6774 31.49 22.94C31.2275 23.2025 30.8714 23.35 30.5001 23.35C30.1288 23.35 29.7727 23.2025 29.5101 22.94C29.2476 22.6774 29.1001 22.3214 29.1001 21.95C29.1001 21.5787 29.2476 21.2226 29.5101 20.9601C29.7727 20.6975 30.1288 20.55 30.5001 20.55C30.8714 20.55 31.2275 20.6975 31.49 20.9601C31.7526 21.2226 31.9001 21.5787 31.9001 21.95ZM22.4001 29.55C22.4001 29.9214 22.2526 30.2774 21.99 30.54C21.7275 30.8026 21.3714 30.95 21.0001 30.95C20.6288 30.95 20.2727 30.8025 20.0101 30.54C19.7476 30.2774 19.6001 29.9214 19.6001 29.55C19.6001 29.1787 19.7476 28.8226 20.0101 28.5601C20.2727 28.2975 20.6288 28.15 21.0001 28.15C21.3714 28.15 21.7275 28.2975 21.99 28.5601C22.2526 28.8226 22.4001 29.1787 22.4001 29.55ZM12.9001 29.55C12.9001 29.9214 12.7526 30.2774 12.49 30.54L12.8436 30.8936L12.49 30.54C12.2275 30.8026 11.8714 30.95 11.5001 30.95C11.1288 30.95 10.7727 30.8026 10.5101 30.54L10.1604 30.8898L10.5101 30.54C10.2476 30.2774 10.1001 29.9214 10.1001 29.55C10.1001 29.1787 10.2476 28.8226 10.5101 28.5601C10.7727 28.2975 11.1288 28.15 11.5001 28.15C11.8714 28.15 12.2275 28.2975 12.49 28.5601C12.7526 28.8226 12.9001 29.1787 12.9001 29.55Z" fill="white" stroke="white"/>
</svg>
