<svg width="40" height="38" viewBox="0 0 40 38" fill="none" xmlns="http://www.w3.org/2000/svg">
<path d="M39.1968 6.27715L20.3729 0.0599914C20.1311 -0.0199971 19.8696 -0.0199971 19.6278 0.0599914L0.803936 6.27715C0.569846 6.35458 0.366258 6.503 0.221983 6.70139C0.0777073 6.89978 5.02365e-05 7.13811 0 7.38264V22.9255C0 23.2347 0.123951 23.5312 0.344586 23.7498C0.565221 23.9684 0.864467 24.0912 1.17649 24.0912C1.48852 24.0912 1.78776 23.9684 2.0084 23.7498C2.22903 23.5312 2.35298 23.2347 2.35298 22.9255V8.9991L9.93743 11.5054C8.981 12.9059 8.33288 14.4903 8.03526 16.1554C7.73765 17.8205 7.79719 19.529 8.21003 21.1699C8.62287 22.8107 9.37974 24.3469 10.4314 25.6788C11.4831 27.0106 12.806 28.1081 14.314 28.8998C10.5394 30.1685 7.25503 32.7059 4.90205 36.2827C4.76679 36.5394 4.73279 36.8368 4.80667 37.1169C4.88055 37.3971 5.05701 37.6399 5.3017 37.7983C5.54639 37.9566 5.84179 38.019 6.13037 37.9734C6.41896 37.9277 6.68007 37.7773 6.86287 37.5514C9.89626 32.9487 14.6826 30.3084 20.0004 30.3084C25.3181 30.3084 30.1045 32.9487 33.1378 37.5514C33.3195 37.7821 33.5821 37.9367 33.8735 37.9844C34.1649 38.0321 34.4638 37.9695 34.7107 37.809C34.9577 37.6485 35.1346 37.4018 35.2065 37.118C35.2784 36.8341 35.2399 36.5339 35.0987 36.2769C32.7457 32.7059 29.4652 30.1685 25.6867 28.894C27.194 28.1014 28.5159 27.0032 29.5666 25.671C30.6173 24.3388 31.3731 22.8024 31.785 21.1617C32.1969 19.5209 32.2556 17.8127 31.9573 16.148C31.6589 14.4833 31.0103 12.8995 30.0535 11.4996L39.1968 8.48812C39.4307 8.41057 39.6342 8.2621 39.7783 8.06372C39.9224 7.86534 40 7.62708 40 7.38264C40 7.13819 39.9224 6.89993 39.7783 6.70155C39.6342 6.50317 39.4307 6.3547 39.1968 6.27715ZM29.8045 18.2627C29.8051 19.8106 29.4325 21.3363 28.7175 22.7126C28.0026 24.0889 26.9661 25.2761 25.6943 26.1751C24.4225 27.074 22.9523 27.6589 21.4062 27.8809C19.8602 28.1028 18.2829 27.9555 16.8059 27.4511C15.3289 26.9468 13.995 26.1 12.9152 24.9813C11.8354 23.8627 11.041 22.5045 10.5982 21.0201C10.1555 19.5356 10.0772 17.9678 10.3698 16.4473C10.6624 14.9267 11.3176 13.4975 12.2806 12.2786L19.6278 14.7053C19.8696 14.7853 20.1311 14.7853 20.3729 14.7053L27.7201 12.2786C29.0727 13.9852 29.8068 16.0928 29.8045 18.2627ZM20.0004 12.3719L4.90205 7.38264L20.0004 2.39337L35.0987 7.38264L20.0004 12.3719Z" fill="white"/>
</svg>
