<svg width="38" height="38" viewBox="0 0 38 38" fill="none" xmlns="http://www.w3.org/2000/svg">
<path d="M35.2857 0H19C18.2801 0 17.5897 0.285968 17.0807 0.794996C16.5717 1.30402 16.2857 1.99441 16.2857 2.71429V16.2857H2.71429C1.99441 16.2857 1.30402 16.5717 0.794996 17.0807C0.285968 17.5897 0 18.2801 0 19V38H38V2.71429C38 1.99441 37.714 1.30402 37.205 0.794996C36.696 0.285968 36.0056 0 35.2857 0ZM9.5 35.2857V25.7857H14.9286V35.2857H9.5ZM35.2857 35.2857H17.6429V24.4286C17.6429 24.0686 17.4999 23.7234 17.2454 23.4689C16.9908 23.2144 16.6457 23.0714 16.2857 23.0714H8.14286C7.78292 23.0714 7.43773 23.2144 7.18321 23.4689C6.9287 23.7234 6.78571 24.0686 6.78571 24.4286V35.2857H2.71429V19H19V2.71429H35.2857V35.2857Z" fill="white"/>
<path d="M21.7144 8.14282H24.4286V10.8571H21.7144V8.14282ZM29.8572 8.14282H32.5715V10.8571H29.8572V8.14282ZM21.7144 16.2857H24.4286V19H21.7144V16.2857ZM29.8572 16.2857H32.5715V19H29.8572V16.2857ZM21.7144 24.4285H24.4286V27.1428H21.7144V24.4285ZM29.8572 24.4285H32.5715V27.1428H29.8572V24.4285Z" fill="white"/>
</svg>
