<svg width="23" height="20" viewBox="0 0 23 20" fill="none" xmlns="http://www.w3.org/2000/svg">
<path d="M3.38235 0C2.84412 0 2.32793 0.243131 1.94734 0.675907C1.56675 1.10868 1.35294 1.69565 1.35294 2.30769V11.5385C1.35294 12.1505 1.56675 12.7375 1.94734 13.1702C2.32793 13.603 2.84412 13.8462 3.38235 13.8462H12.8529C13.1368 13.4156 13.497 13.0575 13.9102 12.7952C14.3234 12.5328 14.7804 12.372 15.2517 12.3231C14.603 11.5071 14.2319 10.4545 14.2053 9.35497C14.1787 8.25542 14.4983 7.1812 15.1065 6.32589C15.7147 5.47057 16.5716 4.89039 17.5227 4.68989C18.4739 4.48939 19.4567 4.68175 20.2941 5.23231V2.30769C20.2941 1.69565 20.0803 1.10868 19.6997 0.675907C19.3191 0.243131 18.8029 0 18.2647 0H3.38235ZM0.676471 15.3846H12.2441C12.199 15.6338 12.1765 15.8903 12.1765 16.1538C12.1765 16.4103 12.1936 16.6667 12.2279 16.9231H0.676471C0.497059 16.9231 0.324997 16.842 0.198134 16.6978C0.0712709 16.5535 0 16.3579 0 16.1538C0 15.9498 0.0712709 15.7542 0.198134 15.6099C0.324997 15.4657 0.497059 15.3846 0.676471 15.3846ZM20.9706 9.23077C20.9706 10.0468 20.6855 10.8294 20.1781 11.4065C19.6706 11.9835 18.9824 12.3077 18.2647 12.3077C17.5471 12.3077 16.8588 11.9835 16.3514 11.4065C15.8439 10.8294 15.5588 10.0468 15.5588 9.23077C15.5588 8.41472 15.8439 7.63209 16.3514 7.05506C16.8588 6.47802 17.5471 6.15385 18.2647 6.15385C18.9824 6.15385 19.6706 6.47802 20.1781 7.05506C20.6855 7.63209 20.9706 8.41472 20.9706 9.23077ZM23 16.1538C23 18.0692 21.6471 20 18.2647 20C14.8824 20 13.5294 18.0769 13.5294 16.1538C13.5294 15.5418 13.7432 14.9548 14.1238 14.5221C14.5044 14.0893 15.0206 13.8462 15.5588 13.8462H20.9706C21.5088 13.8462 22.025 14.0893 22.4056 14.5221C22.7862 14.9548 23 15.5418 23 16.1538Z" fill="#052976"/>
</svg>
