<svg width="29" height="24" viewBox="0 0 29 24" fill="none" xmlns="http://www.w3.org/2000/svg">
<path d="M4.26471 0C3.58606 0 2.93522 0.291757 2.45534 0.811089C1.97547 1.33042 1.70588 2.03479 1.70588 2.76923V13.8462C1.70588 14.5806 1.97547 15.285 2.45534 15.8043C2.93522 16.3236 3.58606 16.6154 4.26471 16.6154H16.2059C16.5638 16.0987 17.018 15.6691 17.539 15.3542C18.0599 15.0394 18.6362 14.8464 19.2304 14.7877C18.4125 13.8085 17.9446 12.5454 17.911 11.226C17.8775 9.9065 18.2804 8.61744 19.0473 7.59106C19.8142 6.56468 20.8947 5.86847 22.0939 5.62787C23.2931 5.38727 24.5323 5.6181 25.5882 6.27877V2.76923C25.5882 2.03479 25.3186 1.33042 24.8388 0.811089C24.3589 0.291757 23.7081 0 23.0294 0H4.26471ZM0.852941 18.4615H15.4382C15.3814 18.7606 15.3529 19.0683 15.3529 19.3846C15.3529 19.6923 15.3745 20 15.4178 20.3077H0.852941C0.626727 20.3077 0.409778 20.2104 0.249821 20.0373C0.0898634 19.8642 0 19.6294 0 19.3846C0 19.1398 0.0898634 18.905 0.249821 18.7319C0.409778 18.5588 0.626727 18.4615 0.852941 18.4615ZM26.4412 11.0769C26.4412 12.0562 26.0817 12.9953 25.4419 13.6878C24.8021 14.3802 23.9343 14.7692 23.0294 14.7692C22.1246 14.7692 21.2568 14.3802 20.6169 13.6878C19.9771 12.9953 19.6176 12.0562 19.6176 11.0769C19.6176 10.0977 19.9771 9.15851 20.6169 8.46607C21.2568 7.77363 22.1246 7.38462 23.0294 7.38462C23.9343 7.38462 24.8021 7.77363 25.4419 8.46607C26.0817 9.15851 26.4412 10.0977 26.4412 11.0769ZM29 19.3846C29 21.6831 27.2941 24 23.0294 24C18.7647 24 17.0588 21.6923 17.0588 19.3846C17.0588 18.6502 17.3284 17.9458 17.8083 17.4265C18.2882 16.9071 18.939 16.6154 19.6176 16.6154H26.4412C27.1198 16.6154 27.7707 16.9071 28.2505 17.4265C28.7304 17.9458 29 18.6502 29 19.3846Z" fill="white"/>
</svg>
