<svg width="14" height="14" viewBox="0 0 14 14" fill="none" xmlns="http://www.w3.org/2000/svg">
<path d="M10.7921 11.0833H9.91708V8.45833C9.91708 7.65392 9.26255 7 8.45869 7H5.5419C4.73803 7 4.0835 7.65392 4.0835 8.45833V12.5417C4.0835 13.3461 4.73803 14 5.5419 14H10.5004C11.1439 14 11.6672 13.4767 11.6672 12.8333V11.9583C11.6672 11.4759 11.2746 11.0833 10.7921 11.0833ZM4.66686 12.5417V8.45833C4.66686 7.97592 5.05946 7.58333 5.5419 7.58333H8.45869C8.94112 7.58333 9.33372 7.97592 9.33372 8.45833V12.8333C9.33372 13.0468 9.39556 13.2446 9.4959 13.4167H5.5419C5.05946 13.4167 4.66686 13.0241 4.66686 12.5417ZM11.0838 12.8333C11.0838 13.1553 10.8219 13.4167 10.5004 13.4167C10.179 13.4167 9.91708 13.1553 9.91708 12.8333V11.6667H10.7921C10.9531 11.6667 11.0838 11.7979 11.0838 11.9583V12.8333ZM4.0835 6.125C4.14826 6.125 4.21359 6.10342 4.26726 6.05967C4.3921 5.95758 4.41077 5.77442 4.30926 5.64958L3.03871 4.09033C3.32222 3.77942 3.49956 3.36992 3.49956 2.91667C3.49956 1.95183 2.71436 1.16667 1.74949 1.16667C0.784616 1.16667 0 1.95183 0 2.91667C0 3.8815 0.785199 4.66667 1.75007 4.66667C2.05167 4.66667 2.3311 4.58325 2.57902 4.4485L3.85716 6.01767C3.91491 6.08883 3.99892 6.12558 4.0835 6.12558V6.125ZM0.583358 2.91667C0.583358 2.27325 1.10663 1.75 1.75007 1.75C2.39352 1.75 2.91679 2.27325 2.91679 2.91667C2.91679 3.56008 2.39352 4.08333 1.75007 4.08333C1.10663 4.08333 0.583358 3.56008 0.583358 2.91667ZM6.70861 3.47025V5.54167C6.70861 5.70267 6.83928 5.83333 7.00029 5.83333C7.1613 5.83333 7.29197 5.70267 7.29197 5.54167V3.47025C8.118 3.33025 8.75036 2.61508 8.75036 1.75C8.75036 0.785167 7.96517 0 7.00029 0C6.03542 0 5.25022 0.785167 5.25022 1.75C5.25022 2.61508 5.88258 3.33083 6.70861 3.47025ZM7.00029 0.583333C7.64373 0.583333 8.16701 1.10658 8.16701 1.75C8.16701 2.39342 7.64373 2.91667 7.00029 2.91667C6.35685 2.91667 5.83358 2.39342 5.83358 1.75C5.83358 1.10658 6.35685 0.583333 7.00029 0.583333ZM12.2505 1.16667C11.2856 1.16667 10.5004 1.95183 10.5004 2.91667C10.5004 3.36992 10.6778 3.77883 10.9613 4.09033L9.69074 5.64958C9.58923 5.77442 9.6079 5.95758 9.73274 6.05967C9.78699 6.10342 9.85233 6.125 9.9165 6.125C10.0017 6.125 10.0851 6.08883 10.1428 6.01708L11.421 4.44792C11.6689 4.58267 11.9483 4.66608 12.2499 4.66608C13.2148 4.66608 14 3.88092 14 2.91608C14 1.95125 13.2148 1.16608 12.2499 1.16608L12.2505 1.16667ZM12.2505 4.08333C11.6071 4.08333 11.0838 3.56008 11.0838 2.91667C11.0838 2.27325 11.6071 1.75 12.2505 1.75C12.894 1.75 13.4172 2.27325 13.4172 2.91667C13.4172 3.56008 12.894 4.08333 12.2505 4.08333ZM8.16701 9.04167C8.16701 9.20267 8.03633 9.33333 7.87533 9.33333H6.12526C5.96425 9.33333 5.83358 9.20267 5.83358 9.04167C5.83358 8.88067 5.96425 8.75 6.12526 8.75H7.87533C8.03633 8.75 8.16701 8.88067 8.16701 9.04167ZM8.16701 10.2083C8.16701 10.3693 8.03633 10.5 7.87533 10.5H6.12526C5.96425 10.5 5.83358 10.3693 5.83358 10.2083C5.83358 10.0473 5.96425 9.91667 6.12526 9.91667H7.87533C8.03633 9.91667 8.16701 10.0473 8.16701 10.2083ZM7.58365 11.375C7.58365 11.536 7.45298 11.6667 7.29197 11.6667H6.12526C5.96425 11.6667 5.83358 11.536 5.83358 11.375C5.83358 11.214 5.96425 11.0833 6.12526 11.0833H7.29197C7.45298 11.0833 7.58365 11.214 7.58365 11.375Z" fill="white"/>
</svg>
