<svg width="14" height="14" viewBox="0 0 14 14" fill="none" xmlns="http://www.w3.org/2000/svg">
<path d="M11.375 0H2.625C1.17775 0 0 1.17775 0 2.625V11.375C0 12.8222 1.17775 14 2.625 14H11.375C12.8222 14 14 12.8222 14 11.375V2.625C14 1.17775 12.8222 0 11.375 0ZM2.625 0.583333H11.375C12.4005 0.583333 13.244 1.34633 13.3869 2.33333H0.613083C0.756 1.34633 1.5995 0.583333 2.625 0.583333ZM11.375 13.4167H2.625C1.49917 13.4167 0.583333 12.5008 0.583333 11.375V2.91667H13.4167V11.375C13.4167 12.5008 12.5008 13.4167 11.375 13.4167ZM2.33333 4.95833C2.33333 4.79733 2.464 4.66667 2.625 4.66667H4.95833C5.11933 4.66667 5.25 4.79733 5.25 4.95833C5.25 5.11933 5.11933 5.25 4.95833 5.25H2.625C2.464 5.25 2.33333 5.11933 2.33333 4.95833ZM8.16667 7.875C8.16667 8.036 8.036 8.16667 7.875 8.16667H4.375C4.214 8.16667 4.08333 8.036 4.08333 7.875C4.08333 7.714 4.214 7.58333 4.375 7.58333H7.875C8.036 7.58333 8.16667 7.714 8.16667 7.875ZM8.16667 10.7917C8.16667 10.9527 8.036 11.0833 7.875 11.0833H2.625C2.464 11.0833 2.33333 10.9527 2.33333 10.7917C2.33333 10.6307 2.464 10.5 2.625 10.5H7.875C8.036 10.5 8.16667 10.6307 8.16667 10.7917ZM11.0833 9.66642V6.125C11.0833 5.32117 10.4294 4.66667 9.625 4.66667H8.70858C8.57792 4.165 8.12525 3.79167 7.58333 3.79167C6.93992 3.79167 6.41667 4.31492 6.41667 4.95833C6.41667 5.60175 6.93992 6.125 7.58333 6.125C8.12525 6.125 8.57792 5.75167 8.70858 5.25H9.625C10.1074 5.25 10.5 5.64258 10.5 6.125V9.66642C9.99833 9.79708 9.625 10.2497 9.625 10.7917C9.625 11.4351 10.1482 11.9583 10.7917 11.9583C11.4351 11.9583 11.9583 11.4351 11.9583 10.7917C11.9583 10.2497 11.585 9.79708 11.0833 9.66642ZM7.58333 5.54167C7.26133 5.54167 7 5.27975 7 4.95833C7 4.63692 7.26133 4.375 7.58333 4.375C7.90533 4.375 8.16667 4.63692 8.16667 4.95833C8.16667 5.27975 7.90533 5.54167 7.58333 5.54167ZM10.7917 11.375C10.4697 11.375 10.2083 11.1137 10.2083 10.7917C10.2083 10.4697 10.4697 10.2083 10.7917 10.2083C11.1137 10.2083 11.375 10.4697 11.375 10.7917C11.375 11.1137 11.1137 11.375 10.7917 11.375Z" fill="white"/>
</svg>
