<svg width="14" height="14" viewBox="0 0 14 14" fill="none" xmlns="http://www.w3.org/2000/svg">
<path d="M3.48993 2.91667C4.13396 2.91667 4.65771 2.39342 4.65771 1.75C4.65771 1.10658 4.13396 0.583333 3.48993 0.583333C2.84589 0.583333 2.32214 1.10658 2.32214 1.75C2.32214 2.39342 2.84589 2.91667 3.48993 2.91667ZM3.48993 1.16667C3.81165 1.16667 4.07382 1.428 4.07382 1.75C4.07382 2.072 3.81165 2.33333 3.48993 2.33333C3.1682 2.33333 2.90604 2.072 2.90604 1.75C2.90604 1.428 3.1682 1.16667 3.48993 1.16667ZM9.91275 14H14V12.25H9.91275V14ZM10.4966 12.8333H13.4161V13.4167H10.4966V12.8333ZM9.91275 11.6667H14V9.91667H9.91275V11.6667ZM10.4966 10.5H13.4161V11.0833H10.4966V10.5ZM9.91275 9.33333H14V7.58333H9.91275V9.33333ZM10.4966 8.16667H13.4161V8.75H10.4966V8.16667ZM4.67114 14H8.75839V12.25H4.67114V14ZM5.25504 12.8333H8.1745V13.4167H5.25504V12.8333ZM4.67114 11.6667H8.75839V9.91667H4.67114V11.6667ZM5.25504 10.5H8.1745V11.0833H5.25504V10.5ZM0 14H3.50336V12.25H0V14ZM0.583893 12.8333H2.91946V13.4167H0.583893V12.8333ZM6.16883 9.33333H6.78425L6.11686 7H4.65713V4.08333H6.9927V3.5H3.06135C2.60591 3.5 2.17033 3.717 1.89532 4.08042L0.0455437 6.53275L0.512074 6.88392L2.32156 4.48467L2.31864 7.31208L2.02961 9.18167L1.15377 11.6667H1.82175L2.6135 9.33333L2.864 7.58333H5.69646L6.16883 9.33333ZM2.90604 7V4.10142C2.95742 4.09208 3.0088 4.08333 3.06135 4.08333H4.07382V7H2.90604ZM13.3104 0L10.0073 2.04517L13.3933 4.08333H13.4161V7H14V0H13.3104ZM13.4161 3.416L11.1272 2.03817L13.4161 0.620667V3.416Z" fill="white"/>
</svg>
