<svg width="14" height="14" viewBox="0 0 14 14" fill="none" xmlns="http://www.w3.org/2000/svg">
<path d="M12.5417 3.5H8.2075L7.42233 2.73992L9.9855 1.45833L7.06883 0H6.41667V2.89625L5.7925 3.5H1.45833C0.653917 3.5 0 4.1545 0 4.95833V14H14V4.95833C14 4.1545 13.3461 3.5 12.5417 3.5ZM12.5417 4.08333C13.0241 4.08333 13.4167 4.47592 13.4167 4.95833V5.83333H10.6178L8.81008 4.08333H12.5417ZM7 0.61775L8.68117 1.45833L7 2.29892V0.61775ZM1.45833 4.08333H5.18992L3.38217 5.83333H0.583333V4.95833C0.583333 4.47592 0.975917 4.08333 1.45833 4.08333ZM8.16667 13.4167H5.83333V9.91667C5.83333 9.27325 6.35658 8.75 7 8.75C7.64342 8.75 8.16667 9.27325 8.16667 9.91667V13.4167ZM8.75 13.4167V9.91667C8.75 8.95183 7.96483 8.16667 7 8.16667C6.03517 8.16667 5.25 8.95183 5.25 9.91667V13.4167H0.583333V6.41667H3.61783L7 3.143L10.3822 6.41667H13.4167V13.4167H8.75ZM2.33333 8.75H4.08333V9.33333H2.33333V8.75ZM2.33333 11.0833H4.08333V11.6667H2.33333V11.0833ZM9.91667 8.75H11.6667V9.33333H9.91667V8.75ZM9.91667 11.0833H11.6667V11.6667H9.91667V11.0833ZM7.58333 5.83333C7.58333 6.15533 7.322 6.41667 7 6.41667C6.678 6.41667 6.41667 6.15533 6.41667 5.83333C6.41667 5.51133 6.678 5.25 7 5.25C7.322 5.25 7.58333 5.51133 7.58333 5.83333Z" fill="white"/>
</svg>
