<svg width="14" height="14" viewBox="0 0 14 14" fill="none" xmlns="http://www.w3.org/2000/svg">
<path d="M11.375 2.33333H3.5V1.45833C3.5 0.6545 2.84608 0 2.04167 0H1.75C0.785167 0 0 0.785167 0 1.75V12.2949C0 13.2819 0.774083 14 1.83342 14H11.375C12.8222 14 14 12.8222 14 11.375V4.95833C14 3.51108 12.8222 2.33333 11.375 2.33333ZM0.583333 1.75C0.583333 1.10658 1.10658 0.583333 1.75 0.583333H2.04167C2.52408 0.583333 2.91667 0.975917 2.91667 1.45833V9.625C2.91667 10.1074 2.52408 10.5 2.04167 10.5H1.75C1.31833 10.5 0.902417 10.6604 0.583333 10.9457V1.75ZM13.4167 11.375C13.4167 12.5026 12.5026 13.4167 11.375 13.4167H1.75C1.10542 13.4167 0.583333 12.8946 0.583333 12.25C0.583333 11.6054 1.10542 11.0833 1.75 11.0833H2.04167C2.84725 11.0833 3.5 10.4306 3.5 9.625V2.91667H11.375C12.5026 2.91667 13.4167 3.83075 13.4167 4.95833V11.375Z" fill="white"/>
<path d="M12.2493 4.95819V11.3749C12.2493 11.8573 11.8568 12.2499 11.3743 12.2499H5.54102C5.0586 12.2499 4.66602 11.8573 4.66602 11.3749V4.95819C4.66602 4.47577 5.0586 4.08319 5.54102 4.08319H6.12435C6.28535 4.08319 6.41602 4.21386 6.41602 4.37486C6.41602 4.53586 6.28535 4.66652 6.12435 4.66652H5.54102C5.3806 4.66652 5.24935 4.79719 5.24935 4.95819V6.41652H6.12435C6.28535 6.41652 6.41602 6.54719 6.41602 6.70819C6.41602 6.86919 6.28535 6.99986 6.12435 6.99986H5.24935V11.3749C5.24935 11.5359 5.3806 11.6665 5.54102 11.6665H8.16602V8.74986H7.29102C7.13002 8.74986 6.99935 8.61919 6.99935 8.45819C6.99935 8.29719 7.13002 8.16652 7.29102 8.16652H9.62435C9.78535 8.16652 9.91602 8.29719 9.91602 8.45819C9.91602 8.61919 9.78535 8.74986 9.62435 8.74986H8.74935V11.6665H11.3743C11.5348 11.6665 11.666 11.5359 11.666 11.3749V4.95819C11.666 4.79719 11.5348 4.66652 11.3743 4.66652H9.04102C8.8806 4.66652 8.74935 4.79719 8.74935 4.95819V6.12486C8.74935 6.28586 8.61868 6.41652 8.45768 6.41652C8.29668 6.41652 8.16602 6.28586 8.16602 6.12486V4.95819C8.16602 4.47577 8.5586 4.08319 9.04102 4.08319H11.3743C11.8568 4.08319 12.2493 4.47577 12.2493 4.95819Z" fill="white"/>
</svg>
