<svg width="14" height="11" viewBox="0 0 14 11" fill="none" xmlns="http://www.w3.org/2000/svg">
<path d="M13.8962 4.94812C13.3845 3.78791 11.3758 0 6.99967 0C2.62352 0 0.61426 3.78973 0.10261 4.95175C-0.0350746 5.2657 -0.0339078 5.62561 0.10436 5.94077C0.614843 7.10098 2.6206 10.8889 6.99967 10.8889C11.3787 10.8889 13.3851 7.09916 13.8973 5.93714C14.0344 5.62319 14.0344 5.26267 13.8962 4.94752V4.94812ZM13.3664 5.68671C12.8915 6.76525 11.0275 10.284 6.99967 10.284C2.97182 10.284 1.10899 6.76767 0.635263 5.68913C0.56642 5.53367 0.565837 5.35643 0.633512 5.20218C1.10841 4.12364 2.97182 0.6043 6.99967 0.6043C11.0275 0.6043 12.8909 4.12061 13.3653 5.19855C13.4335 5.35401 13.4341 5.53246 13.3664 5.6861V5.68671ZM6.99967 1.81471C5.06917 1.81471 3.49922 3.44251 3.49922 5.44414C3.49922 7.44577 5.06917 9.07357 6.99967 9.07357C8.93017 9.07357 10.5001 7.44577 10.5001 5.44414C10.5001 3.44251 8.93017 1.81471 6.99967 1.81471ZM6.99967 8.46867C5.92678 8.46867 4.99741 7.85832 4.49101 6.96064L5.54115 5.87181L6.41626 6.77917L8.16649 4.96445V6.3515H8.7499V4.53679C8.7499 4.20348 8.48853 3.93188 8.16649 3.93188H6.41626V4.53679H7.75402L6.41626 5.92383L5.54115 5.01647L4.23665 6.36904C4.14505 6.07566 4.08263 5.76898 4.08263 5.44414C4.08263 3.77642 5.39121 2.41962 6.99967 2.41962C8.60813 2.41962 9.91672 3.77642 9.91672 5.44414C9.91672 7.11186 8.60813 8.46867 6.99967 8.46867Z" fill="white"/>
</svg>
